<?xml version="1.0" standalone="no"?>
<!DOCTYPE svg PUBLIC "-//W3C//DTD SVG 20010904//EN"
 "http://www.w3.org/TR/2001/REC-SVG-20010904/DTD/svg10.dtd">
<svg version="1.0" xmlns="http://www.w3.org/2000/svg"
 width="29.000000pt" height="25.000000pt" viewBox="0 0 29.000000 25.000000"
 preserveAspectRatio="xMidYMid meet">

<g transform="translate(0.000000,25.000000) scale(0.100000,-0.100000)"
fill="#000000" stroke="none">
<path d="M55 182 c-27 -9 -49 -21 -49 -25 1 -5 14 -31 29 -58 l27 -49 51 6
c50 6 51 5 30 -10 -13 -10 -20 -23 -17 -31 9 -23 33 -18 44 9 6 16 18 26 35
28 19 2 33 16 56 56 l30 53 -33 13 c-46 20 -112 31 -105 19 4 -6 25 -13 48
-16 22 -3 43 -8 47 -11 10 -11 -71 -86 -92 -85 -12 1 -35 -4 -53 -9 -31 -10
-33 -9 -58 33 -14 24 -25 46 -25 48 0 8 61 27 86 27 13 0 26 5 29 10 9 15 -23
11 -80 -8z m190 -76 c-15 -25 -31 -43 -36 -40 -5 3 5 25 23 50 40 56 48 50 13
-10z"/>
</g>
</svg>
