<?xml version="1.0" encoding="iso-8859-1"?>
<!-- Generator: Adobe Illustrator 19.0.0, SVG Export Plug-In . SVG Version: 6.00 Build 0)  -->
<svg version="1.1" id="Layer_1" xmlns="http://www.w3.org/2000/svg" xmlns:xlink="http://www.w3.org/1999/xlink" x="0px" y="0px"
	 viewBox="0 0 512 512" style="enable-background:new 0 0 512 512;width: 50px;height: 50px;" xml:space="preserve">
<g transform="translate(1 1)">
	<path style="fill:#54C9FD;" d="M493.933,195.267c0-55.467-47.787-99.84-104.96-93.013c-42.667,5.12-77.653,39.253-82.773,81.92
		c-3.413,26.453,5.12,51.2,20.48,69.973c13.653,17.067,22.187,38.4,22.187,60.587h102.4l0,0c0-22.187,7.68-42.667,21.333-59.733
		C486.253,238.787,493.933,218.307,493.933,195.267"/>
	<path style="fill:#33A9F8;" d="M388.973,102.253c-0.853,0-1.707,0-2.56,0c46.08,5.973,81.92,45.227,81.92,93.013
		c0,23.04-7.68,43.52-21.333,59.733c-13.653,17.067-21.333,38.4-21.333,59.733l0,0h25.6l0,0c0-22.187,7.68-42.667,21.333-59.733
		c13.653-16.213,21.333-36.693,21.333-59.733C493.933,139.8,446.147,95.427,388.973,102.253"/>
	<polygon style="fill:#FFDD09;" points="348.867,434.2 451.267,434.2 451.267,314.733 348.867,314.733 	"/>
	<polygon style="fill:#FD9808;" points="425.667,434.2 451.267,434.2 451.267,314.733 425.667,314.733 	"/>
	<path style="fill:#54C9FD;" d="M348.867,434.2c6.827,19.627,29.013,34.133,51.2,34.133c22.187,0,44.373-14.507,51.2-34.133H348.867
		z"/>
	<g>
		<path style="fill:#FFDD09;" d="M118.467,511c-5.12,0-8.533-3.413-8.533-8.533V459.8c0-5.12,3.413-8.533,8.533-8.533
			S127,454.68,127,459.8v42.667C127,507.587,123.587,511,118.467,511z"/>
		<path style="fill:#FFDD09;" d="M186.733,511c-5.12,0-8.533-3.413-8.533-8.533V459.8c0-5.12,3.413-8.533,8.533-8.533
			c5.12,0,8.533,3.413,8.533,8.533v42.667C195.267,507.587,191.853,511,186.733,511z"/>
		<polygon style="fill:#FFDD09;" points="75.8,459.8 212.333,459.8 212.333,374.467 75.8,374.467 		"/>
		<polygon style="fill:#FFDD09;" points="237.933,340.333 237.933,314.733 50.2,314.733 50.2,340.333 16.067,340.333 
			16.067,374.467 272.067,374.467 272.067,340.333 		"/>
		<polygon style="fill:#FFDD09;" points="75.8,314.733 212.333,314.733 212.333,263.533 75.8,263.533 		"/>
		<polygon style="fill:#FFDD09;" points="92.867,263.533 195.267,263.533 195.267,75.8 92.867,75.8 		"/>
	</g>
	<g>
		<polygon style="fill:#FD9808;" points="169.667,263.533 195.267,263.533 195.267,75.8 169.667,75.8 		"/>
		<polygon style="fill:#FD9808;" points="186.733,314.733 212.333,314.733 212.333,263.533 186.733,263.533 		"/>
		<polygon style="fill:#FD9808;" points="246.467,374.467 272.067,374.467 272.067,340.333 246.467,340.333 		"/>
		<polygon style="fill:#FD9808;" points="186.733,459.8 212.333,459.8 212.333,374.467 186.733,374.467 		"/>
	</g>
	<path style="fill:#FFDD09;" d="M195.267,75.8c0-18.773-7.68-34.133-17.067-34.133h-17.067v-25.6c0-5.12-3.413-8.533-8.533-8.533
		h-17.067c-5.12,0-8.533,3.413-8.533,8.533v25.6h-17.067c-9.387,0-17.067,15.36-17.067,34.133"/>
	<path style="fill:#FD9808;" d="M152.6,41.667c9.387,0,17.067,15.36,17.067,34.133h25.6c0-18.773-7.68-34.133-17.067-34.133h-17.067
		H152.6z"/>
	<g>
		<polygon style="fill:#FFFFFF;" points="92.867,263.533 118.467,263.533 118.467,75.8 92.867,75.8 		"/>
		<polygon style="fill:#FFFFFF;" points="75.8,314.733 101.4,314.733 101.4,263.533 75.8,263.533 		"/>
		<polygon style="fill:#FFFFFF;" points="16.067,374.467 41.667,374.467 41.667,340.333 16.067,340.333 		"/>
		<polygon style="fill:#FFFFFF;" points="75.8,459.8 101.4,459.8 101.4,374.467 75.8,374.467 		"/>
		<path style="fill:#FFFFFF;" d="M135.533,41.667c-9.387,0-17.067,15.36-17.067,34.133h-25.6c0-18.773,7.68-34.133,17.067-34.133
			H127H135.533z"/>
	</g>
	<path d="M212.333,468.333H75.8c-5.12,0-8.533-3.413-8.533-8.533v-85.333c0-5.12,3.413-8.533,8.533-8.533h136.533
		c5.12,0,8.533,3.413,8.533,8.533V459.8C220.867,464.92,217.453,468.333,212.333,468.333z M84.333,451.267H203.8V383H84.333V451.267
		z"/>
	<path d="M109.933,511c-5.12,0-8.533-3.413-8.533-8.533V459.8c0-5.12,3.413-8.533,8.533-8.533s8.533,3.413,8.533,8.533v42.667
		C118.467,507.587,115.053,511,109.933,511z"/>
	<path d="M178.2,511c-5.12,0-8.533-3.413-8.533-8.533V459.8c0-5.12,3.413-8.533,8.533-8.533c5.12,0,8.533,3.413,8.533,8.533v42.667
		C186.733,507.587,183.32,511,178.2,511z"/>
	<path d="M272.067,383h-256c-5.12,0-8.533-3.413-8.533-8.533v-34.133c0-5.12,3.413-8.533,8.533-8.533h25.6v-17.067
		c0-5.12,3.413-8.533,8.533-8.533h187.733c5.12,0,8.533,3.413,8.533,8.533V331.8h25.6c5.12,0,8.533,3.413,8.533,8.533v34.133
		C280.6,379.587,277.187,383,272.067,383z M24.6,365.933h238.933v-17.067h-25.6c-5.12,0-8.533-3.413-8.533-8.533v-17.067H58.733
		v17.067c0,5.12-3.413,8.533-8.533,8.533H24.6V365.933z"/>
	<path d="M212.333,323.267H75.8c-5.12,0-8.533-3.413-8.533-8.533v-51.2c0-5.12,3.413-8.533,8.533-8.533h136.533
		c5.12,0,8.533,3.413,8.533,8.533v51.2C220.867,319.853,217.453,323.267,212.333,323.267z M84.333,306.2H203.8v-34.133H84.333V306.2
		z"/>
	<path d="M195.267,272.067h-102.4c-5.12,0-8.533-3.413-8.533-8.533V75.8c0-5.12,3.413-8.533,8.533-8.533h102.4
		c5.12,0,8.533,3.413,8.533,8.533v187.733C203.8,268.653,200.387,272.067,195.267,272.067z M101.4,255h85.333V84.333H101.4V255z"/>
	<path d="M195.267,84.333h-102.4c-5.12,0-8.533-3.413-8.533-8.533s3.413-8.533,8.533-8.533h102.4c5.12,0,8.533,3.413,8.533,8.533
		C203.8,80.92,200.387,84.333,195.267,84.333z"/>
	<path d="M195.267,84.333c-5.12,0-8.533-3.413-8.533-8.533c0-16.213-6.827-25.6-8.533-25.6h-17.067c-5.12,0-8.533-3.413-8.533-8.533
		v-25.6h-17.067v25.6c0,5.12-3.413,8.533-8.533,8.533h-17.067c-1.707,0-8.533,9.387-8.533,25.6c0,5.12-3.413,8.533-8.533,8.533
		s-8.533-3.413-8.533-8.533c0-24.747,11.093-42.667,25.6-42.667h8.533V16.067C118.467,6.68,126.147-1,135.533-1H152.6
		c9.387,0,17.067,7.68,17.067,17.067v17.067h8.533c14.507,0,25.6,17.92,25.6,42.667C203.8,80.92,200.387,84.333,195.267,84.333z"/>
	<path d="M451.267,442.733h-102.4c-5.12,0-8.533-3.413-8.533-8.533V314.733c0-5.12,3.413-8.533,8.533-8.533h102.4
		c5.12,0,8.533,3.413,8.533,8.533V434.2C459.8,439.32,456.387,442.733,451.267,442.733z M357.4,425.667h85.333v-102.4H357.4V425.667
		z"/>
	<path d="M400.067,476.867c-26.453,0-51.2-17.067-58.88-40.107c-0.853-2.56-0.853-5.12,0.853-7.68
		c1.707-2.56,4.267-3.413,6.827-3.413h102.4c2.56,0,5.12,1.707,6.827,3.413c1.707,2.56,1.707,5.12,0.853,7.68
		C451.267,459.8,426.52,476.867,400.067,476.867z M363.373,442.733c8.533,10.24,22.187,17.067,36.693,17.067
		c14.507,0,28.16-6.827,36.693-17.067H363.373z"/>
	<path d="M348.867,323.267c-2.56,0-4.267-0.853-5.973-2.56s-2.56-3.413-2.56-5.973c0-19.627-6.827-39.253-19.627-55.467
		c-17.067-21.333-25.6-48.64-22.187-76.8c5.12-46.933,43.52-84.48,89.6-89.6c29.013-3.413,58.027,5.973,80.213,25.6
		c21.333,19.627,34.133,46.933,34.133,75.947c0,23.893-8.533,46.933-23.04,64.853c-12.8,15.36-19.627,34.133-19.627,54.613
		c0,5.12-3.413,8.533-8.533,8.533L348.867,323.267z M357.4,306.2h85.333c1.707-20.48,9.387-40.96,23.04-57.173
		c12.8-15.36,19.627-34.133,19.627-53.76c0-23.893-10.24-47.787-28.16-64s-41.813-23.893-66.56-21.333
		c-39.253,4.267-70.827,35.84-75.093,75.093c-2.56,23.04,4.267,46.08,18.773,64C347.16,265.24,355.693,285.72,357.4,306.2z"/>
	<path d="M400.067,323.267c-5.12,0-8.533-3.413-8.533-8.533v-153.6c0-5.12,3.413-8.533,8.533-8.533s8.533,3.413,8.533,8.533v153.6
		C408.6,319.853,405.187,323.267,400.067,323.267z"/>
	<path d="M451.267,169.667h-102.4c-5.12,0-8.533-3.413-8.533-8.533c0-5.12,3.413-8.533,8.533-8.533h102.4
		c5.12,0,8.533,3.413,8.533,8.533C459.8,166.253,456.387,169.667,451.267,169.667z"/>
	<path d="M442.733,203.8H357.4c-5.12,0-8.533-3.413-8.533-8.533c0-5.12,3.413-8.533,8.533-8.533h85.333
		c5.12,0,8.533,3.413,8.533,8.533C451.267,200.387,447.853,203.8,442.733,203.8z"/>
	<path d="M425.667,237.933h-51.2c-5.12,0-8.533-3.413-8.533-8.533c0-5.12,3.413-8.533,8.533-8.533h51.2
		c5.12,0,8.533,3.413,8.533,8.533C434.2,234.52,430.787,237.933,425.667,237.933z"/>
</g>
<g>
</g>
<g>
</g>
<g>
</g>
<g>
</g>
<g>
</g>
<g>
</g>
<g>
</g>
<g>
</g>
<g>
</g>
<g>
</g>
<g>
</g>
<g>
</g>
<g>
</g>
<g>
</g>
<g>
</g>
</svg>